<svg width="41" height="24" viewBox="0 0 41 24" fill="none" xmlns="http://www.w3.org/2000/svg">
<path d="M17.456 11.32C18.736 11.768 19.7387 12.472 20.464 13.432C21.1893 14.3707 21.552 15.512 21.552 16.856C21.552 18.8187 20.7627 20.3333 19.184 21.4C17.6053 22.4667 15.3227 23 12.336 23H0.24V0.599998H11.696C14.5547 0.599998 16.7307 1.13333 18.224 2.2C19.7173 3.24533 20.464 4.664 20.464 6.456C20.464 7.52267 20.1973 8.48267 19.664 9.336C19.152 10.168 18.416 10.8293 17.456 11.32ZM6.512 5.176V9.496H10.864C12.9973 9.496 14.064 8.77067 14.064 7.32C14.064 5.89067 12.9973 5.176 10.864 5.176H6.512ZM11.824 18.424C14.0427 18.424 15.152 17.6667 15.152 16.152C15.152 14.6373 14.0427 13.88 11.824 13.88H6.512V18.424H11.824ZM31.9378 5.368C34.8178 5.368 37.0151 6.02933 38.5298 7.352C40.0444 8.65333 40.8018 10.6587 40.8018 13.368V23H35.1378V20.76C34.2631 22.4453 32.5564 23.288 30.0178 23.288C28.6738 23.288 27.5111 23.0533 26.5298 22.584C25.5484 22.1147 24.8018 21.4853 24.2898 20.696C23.7991 19.8853 23.5538 18.968 23.5538 17.944C23.5538 16.3013 24.1831 15.032 25.4418 14.136C26.7004 13.2187 28.6418 12.76 31.2658 12.76H34.7218C34.6151 10.9253 33.3884 10.008 31.0417 10.008C30.2098 10.008 29.3671 10.1467 28.5138 10.424C27.6604 10.68 26.9351 11.0427 26.3378 11.512L24.2898 7.384C25.2498 6.744 26.4124 6.25333 27.7778 5.912C29.1644 5.54933 30.5511 5.368 31.9378 5.368ZM31.7138 19.448C32.4178 19.448 33.0364 19.2773 33.5698 18.936C34.1031 18.5947 34.4871 18.0933 34.7218 17.432V15.928H32.0978C30.3271 15.928 29.4418 16.5147 29.4418 17.688C29.4418 18.2213 29.6444 18.648 30.0498 18.968C30.4551 19.288 31.0098 19.448 31.7138 19.448Z" fill="url(#paint0_linear)"/>
<defs>
<linearGradient id="paint0_linear" x1="-49.0588" y1="3.33333" x2="-36.1198" y2="49.0006" gradientUnits="userSpaceOnUse">
<stop offset="0.513514"/>
<stop offset="1" stop-opacity="0.3"/>
</linearGradient>
</defs>
</svg>
