<svg width="58" height="24" viewBox="0 0 58 24" fill="none" xmlns="http://www.w3.org/2000/svg">
<path d="M16.248 17.464C15.128 17.976 14.008 18.2 12.824 18.2C9.048 18.2 6.488 15.576 6.488 11.8C6.488 7.928 9.048 5.4 12.888 5.4C15.032 5.4 16.792 6.2 18.328 7.896L22.36 4.248C20.152 1.592 16.76 0.151999 12.568 0.151999C5.304 0.151999 0.0880001 4.984 0.0880001 11.8C0.0880001 18.616 5.304 23.448 12.44 23.448C15.704 23.448 19.256 22.456 21.848 20.6V11.32H16.248V17.464ZM36.201 23.448C42.825 23.448 46.729 19.704 46.729 13.016V0.599998H40.489V12.824C40.489 16.664 38.889 18.2 36.265 18.2C33.609 18.2 32.009 16.664 32.009 12.824V0.599998H25.673V13.016C25.673 19.704 29.577 23.448 36.201 23.448ZM51.0213 23H57.3573V0.599998H51.0213V23Z" fill="url(#paint0_linear)"/>
<defs>
<linearGradient id="paint0_linear" x1="-48.0588" y1="3.33333" x2="-35.1198" y2="49.0006" gradientUnits="userSpaceOnUse">
<stop offset="0.513514" stop-color="#FBFCFF"/>
<stop offset="1" stop-color="#FBFCFF" stop-opacity="0.3"/>
</linearGradient>
</defs>
</svg>
