<svg width="125" height="30" viewBox="0 0 125 30" fill="none" xmlns="http://www.w3.org/2000/svg">
<path d="M15.7168 16.1096V19.8229L21.8049 23.3419L25 17.7935L18.912 14.2745L15.7168 16.1096Z" fill="url(#paint0_linear)"/>
<path d="M21.8048 5.18562L15.7168 8.70462V1.66663H9.30484V8.70462L3.19516 5.18562L0 10.7556L6.08808 14.2746L0 17.7936L3.19516 23.3419L9.30484 19.8229V26.8609H15.7168V19.8229V16.1096L18.9119 14.2746L25 10.7556L21.8048 5.18562Z" fill="#40FFF4"/>
<path d="M88.0628 13.8726V24.6018H83.285V13.8726H80.917V9.40901H83.285V4.8407H88.0628V9.40901H91.1224V13.8935H88.0628V13.8726Z" fill="#1D2026"/>
<path d="M108.39 0H113.754V11.337C114.488 10.4568 115.221 9.84912 115.976 9.53479C116.73 9.22045 117.61 9.07376 118.616 9.07376C120.544 9.07376 121.99 9.59765 122.954 10.6664C123.939 11.7351 124.421 13.1601 124.421 14.9623V24.6228H119.056V16.9321C119.056 16.1567 118.993 15.5281 118.868 15.0671C118.742 14.5851 118.553 14.2288 118.281 13.9774C117.799 13.5583 117.233 13.3487 116.563 13.3487C115.661 13.3487 114.949 13.6211 114.467 14.166C113.985 14.7108 113.734 15.4862 113.734 16.492V24.6228H108.369V0H108.39Z" fill="#1D2026"/>
<path d="M68.7 9.22046C70.6279 9.22046 72.0948 9.91199 73.1007 11.0645H73.2055V9.63957H77.69V24.6018H73.2055V23.1559H73.1007C72.1577 24.2456 70.6489 25 68.7 25C64.5089 25 60.9045 21.7519 60.9045 17.1207C60.9045 12.4895 64.467 9.22046 68.7 9.22046ZM73.1845 17.0998C73.1845 14.9413 71.55 13.3278 69.3915 13.3278C67.2331 13.3278 65.5986 14.9413 65.5986 17.0998C65.5986 19.2582 67.2331 20.8718 69.3915 20.8718C71.55 20.8927 73.1845 19.2791 73.1845 17.0998Z" fill="#1D2026"/>
<path d="M100.28 13.5164C98.2054 13.5164 96.5918 14.9204 96.5918 17.1207C96.5918 19.321 98.1844 20.7251 100.28 20.7251C101.37 20.7251 102.585 20.3269 103.423 19.5725L106.294 22.8416C104.785 24.2246 102.627 25 100.008 25C95.4392 25 91.793 21.8148 91.793 17.1207C91.793 12.4267 95.4602 9.22046 100.029 9.22046C102.522 9.22046 104.744 9.97486 106.127 11.337L103.298 14.606C102.585 13.9145 101.391 13.5164 100.28 13.5164Z" fill="#1D2026"/>
<path d="M54.5131 1.96985L46.9272 9.57672L39.3622 1.9908L34.7729 24.6228H39.9699L42.317 11.3579L46.9272 15.9891L51.5584 11.3579L53.8844 24.6228H59.1024L54.5131 1.96985Z" fill="#1D2026"/>
<defs>
<linearGradient id="paint0_linear" x1="22.6816" y1="22.8253" x2="18.0321" y2="14.7721" gradientUnits="userSpaceOnUse">
<stop stop-color="#40FFF4" stop-opacity="0"/>
<stop offset="1" stop-color="#40FFF4"/>
</linearGradient>
</defs>
</svg>
