<svg width="110" height="22" viewBox="0 0 110 22" fill="none" xmlns="http://www.w3.org/2000/svg">
<g clip-path="url(#clip0)">
<path d="M8.05566 15.5546V21.6014H13.5862V15.5546L10.821 13.9634L8.05566 15.5546Z" fill="url(#paint0_linear)"/>
<path d="M13.5859 12.372V15.5545L18.836 18.5779L21.6013 13.8041L16.3512 10.7808L13.5859 12.372Z" fill="url(#paint1_linear)"/>
<path d="M5.25004 10.7808L0 13.8041L2.76529 18.5779L8.0554 15.5545V12.372L5.25004 10.7808Z" fill="url(#paint2_linear)"/>
<path d="M18.836 3.02339L13.586 6.04677V0H8.0554V6.04677L2.76529 3.02339L0 7.79716L5.25004 10.7808L8.0554 12.372V15.5545L10.8207 13.9633L13.586 15.5545V12.372L16.3513 10.7808L21.6013 7.79716L18.836 3.02339Z" fill="#0D50FE"/>
</g>
<path d="M62.4412 7.93412C64.1041 7.93412 65.3135 8.54838 66.1701 9.52095H66.2709V8.29244H70.1005V21.243H66.2709V20.0145H66.1701C65.3639 20.9359 64.0537 21.6013 62.4412 21.6013C58.8636 21.6013 55.7898 18.786 55.7898 14.7933C55.7898 10.8006 58.8132 7.93412 62.4412 7.93412ZM66.2709 14.7421C66.2709 12.8482 64.86 11.4661 63.0459 11.4661C61.2319 11.4661 59.821 12.8482 59.821 14.7421C59.821 16.6361 61.2319 18.0182 63.0459 18.0182C64.86 18.0182 66.2709 16.6361 66.2709 14.7421Z" fill="white"/>
<path d="M89.3494 11.6197C87.5858 11.6197 86.2252 12.8482 86.2252 14.7421C86.2252 16.6361 87.5858 17.8646 89.3494 17.8646C90.2564 17.8646 91.3146 17.5063 92.0201 16.892L94.4892 19.7073C93.179 20.9359 91.365 21.6013 89.1479 21.6013C85.2678 21.6013 82.1437 18.8372 82.1437 14.7933C82.1437 10.7495 85.2678 7.98531 89.1479 7.98531C91.2642 7.98531 93.179 8.65075 94.338 9.82808L91.9193 12.6946C91.365 11.978 90.3068 11.6197 89.3494 11.6197Z" fill="white"/>
<path d="M30.2422 21.243L33.4671 1.94514H38.3549L42.1342 12.2339L45.9638 1.94514H50.8516L54.0765 21.243H49.1383L47.5259 10.1352L43.0412 21.243H41.076L36.7929 10.1352L35.1804 21.243H30.2422Z" fill="white"/>
<path d="M78.8179 21.243H74.7364V11.978H72.7208V8.13889H74.7364V4.14623H78.8179V8.0877H81.3878V11.9268H78.8179V21.243Z" fill="white"/>
<path d="M96.1016 0H100.637V9.7769C101.241 9.00908 101.896 8.4972 102.552 8.24126C103.207 7.98532 103.962 7.83175 104.819 7.83175C106.432 7.83175 107.691 8.29245 108.498 9.21383C109.354 10.1352 109.757 11.3637 109.757 12.8994V21.243H105.222V14.5886C105.222 13.9231 105.172 13.4112 105.071 12.9505C104.97 12.541 104.819 12.2339 104.567 12.0292C104.164 11.6708 103.66 11.5173 103.106 11.5173C102.35 11.5173 101.745 11.7732 101.342 12.2339C100.939 12.6946 100.738 13.3601 100.738 14.2302V21.243H96.2024V0H96.1016Z" fill="white"/>
<defs>
<linearGradient id="paint0_linear" x1="10.8081" y1="21.6013" x2="10.8081" y2="13.9753" gradientUnits="userSpaceOnUse">
<stop stop-color="#0D50FE" stop-opacity="0"/>
<stop offset="1" stop-color="#0D50FE"/>
</linearGradient>
<linearGradient id="paint1_linear" x1="19.6061" y1="18.1462" x2="15.6314" y2="11.2107" gradientUnits="userSpaceOnUse">
<stop stop-color="#0D50FE" stop-opacity="0"/>
<stop offset="1" stop-color="#0D50FE"/>
</linearGradient>
<linearGradient id="paint2_linear" x1="2.00956" y1="18.1462" x2="5.98427" y2="11.2107" gradientUnits="userSpaceOnUse">
<stop stop-color="#0D50FE" stop-opacity="0"/>
<stop offset="1" stop-color="#0D50FE"/>
</linearGradient>
<clipPath id="clip0">
<rect width="21.6013" height="21.6013" fill="white"/>
</clipPath>
</defs>
</svg>
