<svg width="24" height="23" viewBox="0 0 24 23" fill="none" xmlns="http://www.w3.org/2000/svg">
<path d="M20.7273 5.36365H24" stroke="#FBFCFF" stroke-width="2" stroke-miterlimit="10" stroke-linejoin="round"/>
<path d="M0 5.36365H12" stroke="#FBFCFF" stroke-width="2" stroke-miterlimit="10" stroke-linejoin="round"/>
<path d="M12.1091 17.3636H24" stroke="#FBFCFF" stroke-width="2" stroke-miterlimit="10" stroke-linejoin="round"/>
<path d="M0 17.3636H3.38182" stroke="#FBFCFF" stroke-width="2" stroke-miterlimit="10" stroke-linejoin="round"/>
<path d="M16.3636 9.72727C18.7736 9.72727 20.7273 7.77361 20.7273 5.36364C20.7273 2.95367 18.7736 1 16.3636 1C13.9537 1 12 2.95367 12 5.36364C12 7.77361 13.9537 9.72727 16.3636 9.72727Z" stroke="#FBFCFF" stroke-width="2" stroke-miterlimit="10" stroke-linejoin="round"/>
<path d="M7.74523 21.7273C10.1552 21.7273 12.1089 19.7737 12.1089 17.3637C12.1089 14.9537 10.1552 13.0001 7.74523 13.0001C5.33526 13.0001 3.38159 14.9537 3.38159 17.3637C3.38159 19.7737 5.33526 21.7273 7.74523 21.7273Z" stroke="#FBFCFF" stroke-width="2" stroke-miterlimit="10" stroke-linejoin="round"/>
</svg>
