<svg width="29" height="21" viewBox="0 0 29 21" fill="none" xmlns="http://www.w3.org/2000/svg">
<path d="M14.2998 12.9999C16.5089 12.9999 18.2998 11.209 18.2998 8.99988C18.2998 6.79074 16.5089 4.99988 14.2998 4.99988C12.0907 4.99988 10.2998 6.79074 10.2998 8.99988C10.2998 11.209 12.0907 12.9999 14.2998 12.9999Z" stroke="#FBFCFF" stroke-width="1.4" stroke-miterlimit="10" stroke-linejoin="round"/>
<path d="M6.30029 20.9999C6.30029 16.5999 9.9003 12.9999 14.3003 12.9999C18.7003 12.9999 22.3003 16.5999 22.3003 20.9999" stroke="#FBFCFF" stroke-width="1.4" stroke-miterlimit="10" stroke-linejoin="round"/>
<path d="M15.7002 5C15.7002 2.8 17.5002 1 19.7002 1C21.9002 1 23.7002 2.8 23.7002 5C23.7002 7.20001 21.9002 9.00001 19.7002 9.00001" stroke="#FBFCFF" stroke-width="1.4" stroke-miterlimit="10" stroke-linejoin="round"/>
<path d="M18.0996 9.2C18.5996 9.1 19.0996 9 19.6996 9C24.0996 9 27.6996 12.6 27.6996 17" stroke="#FBFCFF" stroke-width="1.4" stroke-miterlimit="10" stroke-linejoin="round"/>
<path d="M8.99952 9.00001C6.79951 9.00001 4.99951 7.20001 4.99951 5C4.99951 2.8 6.79951 1 8.99952 1C11.1995 1 12.9995 2.8 12.9995 5" stroke="#FBFCFF" stroke-width="1.4" stroke-miterlimit="10" stroke-linejoin="round"/>
<path d="M1 17C1 12.6 4.6 9 9.00001 9C9.40001 9 9.70001 9 10.1 9.1" stroke="#FBFCFF" stroke-width="1.4" stroke-miterlimit="10" stroke-linejoin="round"/>
</svg>
