<svg width="58" height="24" viewBox="0 0 58 24" fill="none" xmlns="http://www.w3.org/2000/svg">
<path d="M10.576 23.448C7.248 23.448 4.656 22.5413 2.8 20.728C0.965333 18.9147 0.0480001 16.344 0.0480001 13.016V0.599998H6.384V12.824C6.384 16.408 7.80267 18.2 10.64 18.2C13.456 18.2 14.864 16.408 14.864 12.824V0.599998H21.104V13.016C21.104 16.344 20.176 18.9147 18.32 20.728C16.4853 22.5413 13.904 23.448 10.576 23.448ZM25.3963 0.599998H31.7323V23H25.3963V0.599998ZM50.384 23L45.744 16.056L41.168 23H33.936L42.096 11.672L34.288 0.599998H41.424L45.904 7.064L50.32 0.599998H57.168L49.36 11.416L57.68 23H50.384Z" fill="url(#paint0_linear)"/>
<defs>
<linearGradient id="paint0_linear" x1="-60.8235" y1="3.33333" x2="-50.1877" y2="50.2559" gradientUnits="userSpaceOnUse">
<stop offset="0.513514" stop-color="#17181B"/>
<stop offset="1" stop-color="#17181B" stop-opacity="0.3"/>
</linearGradient>
</defs>
</svg>
